<svg width="150" height="150" viewBox="0 0 150 150" fill="none" xmlns="http://www.w3.org/2000/svg" style="width: 200px; height: 200px;"><style>
     .technology18-a {animation:technology18-a 4s infinite; transform: translate3d(0, -5px, 0);}
     .technology18-b {animation:technology18-a 4s 300ms infinite; transform: translate3d(0, -5px, 0);}
     .technology18-c {animation:technology18-a 4s 600ms infinite; transform: translate3d(0, -5px, 0);}
     @keyframes technology18-a {
         0%{transform: translate3d(0, -5px, 0);}
         50%{transform: translate3d(0, 4px, 0);}
         100%{transform: translate3d(0, -5px, 0);}
     }
     @media (prefers-reduced-motion: reduce) {
         .technology18-a, .technology18-b, .technology18-c {
             animation: none;
         }
     }
    </style><path class="fillCls1" d="M91.1262 83.0336C91.0587 83.2137 90.9911 83.4163 91.0362 83.6189C91.0812 83.7765 91.1937 83.9116 91.3063 84.0467C93.67 86.7931 96.0337 89.5395 98.3749 92.2859C97.9697 91.8131 99.0953 88.7515 99.2529 88.1437C99.613 86.7705 99.9957 85.3973 100.356 84.0241C100.806 82.2908 102.63 77.5183 101.504 75.92C100.401 74.3667 96.574 76.8655 95.4934 77.6309C93.5574 78.9816 92.0041 80.8725 91.1262 83.0336Z" fill="#FDC485" stroke-width="2px" style="animation-duration: 4s;"></path><path class="fillCls4" d="M140.157 44.4045L104.769 42.5135C104.184 42.491 103.666 42.9188 103.576 43.5266L95.2918 96.0909C95.1792 96.8788 95.7195 97.6217 96.4624 97.6892L132.256 100.616C132.863 100.661 133.381 100.233 133.494 99.5802L141.373 45.9578C141.485 45.2149 140.9 44.4495 140.157 44.4045Z" fill="#DEB7F0" stroke-width="2px" style="animation-duration: 4s;"></path><path class="fillCls5" d="M138.288 47.3309L106.142 45.62L98.3979 94.8301L130.927 97.509L138.288 47.3309ZM140.179 44.4044C140.922 44.4719 141.485 45.2148 141.372 45.9802L133.493 99.6026C133.403 100.255 132.863 100.683 132.255 100.638L96.4619 97.7116C95.7191 97.6441 95.1562 96.9012 95.2913 96.1133L103.576 43.549C103.666 42.9187 104.183 42.4909 104.769 42.536L140.157 44.4269C140.157 44.4044 140.179 44.4044 140.179 44.4044Z" fill="#9C36DB" stroke-width="2px" style="animation-duration: 4s;"></path><path class="fillCls1" d="M111.161 104.645C114.47 97.2162 117.779 89.7874 121.088 82.3586C122.934 78.2165 125.658 74.5696 129.102 71.6431C130.656 70.315 132.389 69.347 134.055 68.1764C134.37 67.9513 137.567 65.8352 137.612 66.1504C137.724 66.9833 137.837 67.9062 137.364 68.6266C137.049 69.0994 136.554 69.4145 136.103 69.7972C135.068 70.6751 133.447 72.9938 135.833 72.7687C137.342 72.6337 138.962 71.6882 140.133 70.7652C141.394 69.7972 142.452 68.5366 143.172 67.1183C143.33 66.8032 144.5 62.9087 144.253 62.9312C145.311 62.7961 145.738 64.2369 145.783 65.3174C145.851 68.1088 145.918 70.9228 145.986 73.7142C146.031 75.5827 146.031 77.6087 144.951 79.117C143.6 81.0079 141.033 81.4807 138.715 81.7958C136.464 82.111 134.19 82.4261 131.939 82.7413C130.768 82.8989 129.463 83.1465 128.832 84.137C128.585 84.5197 128.472 84.97 128.382 85.3977C126.784 91.9935 125.185 98.5894 123.61 105.208C121.426 114.235 119.085 123.6 113.209 130.803C111.251 122.159 107.536 112.749 111.161 104.645Z" fill="#FDC485" stroke-width="2px" style="animation-duration: 4s;"></path><path class="fillCls3" d="M29.3091 127.134C30.3221 123.78 31.3126 120.448 32.3256 117.094C33.4962 113.222 34.6668 109.305 36.7379 105.838C39.5068 101.201 43.6939 97.6213 47.5434 93.8168C53.3739 88.0314 59.0693 81.2554 67.0834 79.4545C69.0869 79.0043 71.1579 78.8917 73.1615 78.4415C75.6602 77.8787 77.5962 75.8527 80.005 75.47C82.6163 75.0647 85.5653 75.9652 87.6589 77.5185C88.7844 78.3514 89.7524 79.4095 90.6079 80.5125C91.0356 81.0753 91.4633 81.6381 91.8685 82.2234C95.5154 87.311 98.8696 92.6237 101.909 98.094C103.439 100.84 104.88 103.609 106.253 106.423C106.614 107.189 107.424 110.025 108.257 110.34C108.257 110.34 108.437 107.504 110.373 106.873C111.296 111.623 119.355 116.959 120.436 117.004C121.359 117.049 119.895 122.159 119.693 122.677C118.59 125.536 117.216 128.485 114.673 130.308C113.119 131.434 110.576 132.379 108.617 131.906C107.604 131.659 106.704 131.096 105.871 130.466C102.404 127.922 99.6575 124.568 96.9336 121.236C95.8981 119.975 94.8625 118.715 94.0521 117.296C94.0521 118.399 93.6244 119.412 92.9941 120.313C92.3187 121.303 91.5308 122.024 90.5854 122.744C88.0641 124.658 84.4397 125.535 82.3912 127.989C81.8059 128.687 81.3782 129.498 80.7253 130.128C78.9244 131.771 76.178 131.366 73.9494 131.231C71.0229 131.051 68.1189 130.781 65.1924 130.781C60.6901 130.758 56.1653 131.163 51.663 130.668C47.2958 130.195 43.0861 128.867 38.899 127.584C37.2556 127.066 35.5898 126.571 33.8789 126.661C32.1681 126.751 30.3896 127.607 29.6693 129.16C28.9714 128.822 29.084 127.854 29.3091 127.134Z" fill="rgba(255,254,0,1)" stroke-width="2px" style="animation-duration: 4s;"></path><path class="fillCls1" d="M96.709 35.7822C96.709 35.7822 99.8606 50.6398 92.4318 59.8695H84.5528L81.8514 69.5495L77.7994 51.8104L96.709 35.7822Z" fill="#FDC485" stroke-width="2px" style="animation-duration: 4s;"></path><path class="fillCls2" d="M88.8976 22.7481C89.3704 22.7706 89.8431 22.8382 90.2933 22.9507C92.7021 23.6036 94.4805 25.9223 95.471 28.0834C96.9567 31.325 98.2624 34.7693 98.2849 38.3486C98.3074 41.9279 96.8442 45.6873 93.8276 47.6008C90.8111 49.5143 86.5114 49.4918 84.4178 52.3733C82.4593 55.0746 83.4948 58.834 84.4628 62.0307C85.4083 65.1373 86.1962 68.3564 86.1062 71.5981C86.0161 74.8397 84.9356 78.1714 82.5944 80.4226C80.5008 82.4486 77.5743 83.4391 74.6929 83.9569C72.5092 84.3396 70.078 84.6097 68.6598 86.2981C67.9169 87.176 67.6017 88.3016 67.2191 89.3821C65.8909 93.1866 63.8198 96.7209 61.1635 99.7374C58.6197 102.641 55.5356 105.028 52.4965 107.414C50.8757 108.674 49.2324 109.958 47.3414 110.746C45.0452 111.714 42.5014 111.916 40.0252 112.029C31.2457 112.366 22.4212 111.421 13.9118 109.192C8.46406 107.774 2.38596 105.005 1.19285 99.5123C0.0672746 94.2671 4.07434 89.3146 8.32901 86.0504C17.0184 79.4095 27.6439 75.9428 37.1887 70.6076C39.9576 69.0543 42.659 67.3209 44.8426 65.0022C50.7406 58.7665 51.8662 49.6043 55.0854 41.6578C57.314 36.1425 60.5331 30.7397 65.193 26.9128C67.5342 24.9993 70.2356 23.536 73.1621 22.7932C74.5353 22.4555 76.0886 22.1403 77.4618 22.0278C79.3077 21.8477 80.816 22.5906 82.5944 22.9057C84.6655 23.2659 86.8716 22.6356 88.8976 22.7481Z" fill="#F26C5D" stroke-width="2px" style="animation-duration: 4s;"></path><g class="technology18-c" style="animation-duration: 4s;"><path class="fillCls10" d="M41.1175 52.5004H12.7737C11.7951 52.5004 11 51.7106 11 50.7337V30.7667C11 29.792 11.7929 29 12.7737 29H41.1197C42.0983 29 42.8934 29.7898 42.8934 30.7667V50.7337C42.8912 51.7084 42.0983 52.5004 41.1175 52.5004Z" fill="#0061FE" stroke-width="2px"></path><path class="fillCls11" d="M27.9767 44.9467H19.2032C18.3807 44.9467 17.7148 44.3203 17.7148 43.5465V37.9539C17.7148 37.1801 18.3807 36.5537 19.2032 36.5537H27.9767C28.7992 36.5537 29.465 37.1801 29.465 37.9539V43.5465C29.465 44.3183 28.7992 44.9467 27.9767 44.9467Z" fill="#FFFFFF" stroke-width="2px"></path><path class="fillCls11" d="M30.3027 38.919V40.5213V40.9791V42.5814L36.1778 45.786V40.9791V40.5213V35.7144L30.3027 38.919Z" fill="#FFFFFF" stroke-width="2px"></path></g><g class="technology18-b" style="animation-duration: 4s;"><path class="fillCls7" d="M122 56.7502H145.5V45H122V56.7502Z" fill="#C572ED" stroke-width="2px"></path><path class="fillCls6" d="M122 45L133.618 50.8751L145.5 45H122Z" fill="#DE99FF" stroke-width="2px"></path></g><g class="technology18-a" style="animation-duration: 4s;"><path class="fillCls9" d="M120.168 10C113.448 10 108 15.3586 108 21.9737C108 25.2166 109.316 28.1616 111.442 30.317L108.785 32.9342H115.266C116.766 33.5848 118.424 33.9523 120.172 33.9523C126.892 33.9523 132.34 28.5937 132.34 21.9786C132.34 15.3636 126.887 10 120.168 10Z" fill="#90D1BF" stroke-width="2px"></path><path class="fillCls8" d="M114.671 23.5172C113.804 23.5172 113.102 22.8257 113.102 21.9727C113.102 21.1197 113.804 20.4282 114.671 20.4282C115.538 20.4282 116.24 21.1197 116.24 21.9727C116.24 22.8257 115.538 23.5172 114.671 23.5172Z" fill="rgba(37,157,146,1)" stroke-width="2px"></path><path class="fillCls8" d="M120.165 23.5172C119.298 23.5172 118.596 22.8257 118.596 21.9727C118.596 21.1197 119.298 20.4282 120.165 20.4282C121.032 20.4282 121.734 21.1197 121.734 21.9727C121.734 22.8257 121.032 23.5172 120.165 23.5172Z" fill="rgba(37,157,146,1)" stroke-width="2px"></path><path class="fillCls8" d="M125.655 23.5172C124.789 23.5172 124.086 22.8257 124.086 21.9727C124.086 21.1197 124.789 20.4282 125.655 20.4282C126.522 20.4282 127.225 21.1197 127.225 21.9727C127.225 22.8257 126.522 23.5172 125.655 23.5172Z" fill="rgba(37,157,146,1)" stroke-width="2px"></path></g></svg>