<svg id="visual" viewBox="0 0 960 540" width="960" height="540" xmlns="http://www.w3.org/2000/svg" xmlns:xlink="http://www.w3.org/1999/xlink" version="1.1"><path d="M690 540L556 491L642 442L671 393L796 344L777 295L777 245L690 196L623 147L738 98L738 49L652 0L960 0L960 49L960 98L960 147L960 196L960 245L960 295L960 344L960 393L960 442L960 491L960 540Z" fill="#008080"></path><path d="M613 540L460 491L479 442L613 393L719 344L652 295L633 245L556 196L546 147L604 98L594 49L575 0L653 0L739 49L739 98L624 147L691 196L778 245L778 295L797 344L672 393L643 442L557 491L691 540Z" fill="#00a389"></path><path d="M373 540L229 491L364 442L421 393L277 344L277 295L316 245L258 196L287 147L277 98L335 49L249 0L576 0L595 49L605 98L547 147L557 196L634 245L653 295L720 344L614 393L480 442L461 491L614 540Z" fill="#00c57e"></path><path d="M249 540L143 491L201 442L258 393L210 344L105 295L133 245L172 196L153 147L153 98L153 49L114 0L250 0L336 49L278 98L288 147L259 196L317 245L278 295L278 344L422 393L365 442L230 491L374 540Z" fill="#52e45e"></path><path d="M0 540L0 491L0 442L0 393L0 344L0 295L0 245L0 196L0 147L0 98L0 49L0 0L115 0L154 49L154 98L154 147L173 196L134 245L106 295L211 344L259 393L202 442L144 491L250 540Z" fill="#9dff00"></path></svg>