<svg id="visual" viewBox="0 0 960 540" width="960" height="540" xmlns="http://www.w3.org/2000/svg" xmlns:xlink="http://www.w3.org/1999/xlink" version="1.1"><g stroke-width="1" stroke-linejoin="bevel"><path d="M446.7 302L410.7 354L525.3 321Z" fill="#b0d668" stroke="#b0d668"></path><path d="M410.7 354L448.7 441L525.3 321Z" fill="#83c56c" stroke="#83c56c"></path><path d="M448.7 441L549.3 455L525.3 321Z" fill="#f9ed69" stroke="#f9ed69"></path><path d="M347 230L352 358L410.7 354Z" fill="#58b270" stroke="#58b270"></path><path d="M410.7 354L352 358L448.7 441Z" fill="#b0d668" stroke="#b0d668"></path><path d="M637 369L546.3 247L525.3 321Z" fill="#f9ed69" stroke="#f9ed69"></path><path d="M525.3 321L546.3 247L446.7 302Z" fill="#f9ed69" stroke="#f9ed69"></path><path d="M549.3 455L637 369L525.3 321Z" fill="#83c56c" stroke="#83c56c"></path><path d="M646 238L557.3 213L546.3 247Z" fill="#83c56c" stroke="#83c56c"></path><path d="M546.3 247L436.7 153L446.7 302Z" fill="#c7df67" stroke="#c7df67"></path><path d="M446.7 302L347 230L410.7 354Z" fill="#6dbc6e" stroke="#6dbc6e"></path><path d="M436.7 153L347 230L446.7 302Z" fill="#b0d668" stroke="#b0d668"></path><path d="M387.7 540L558.3 540L448.7 441Z" fill="#c7df67" stroke="#c7df67"></path><path d="M448.7 441L558.3 540L549.3 455Z" fill="#99ce6a" stroke="#99ce6a"></path><path d="M549.3 455L678 444L637 369Z" fill="#6dbc6e" stroke="#6dbc6e"></path><path d="M280 413L387.7 540L448.7 441Z" fill="#b0d668" stroke="#b0d668"></path><path d="M239.3 338L280 413L352 358Z" fill="#42a872" stroke="#42a872"></path><path d="M352 358L280 413L448.7 441Z" fill="#299e73" stroke="#299e73"></path><path d="M557.3 213L436.7 153L546.3 247Z" fill="#e0e667" stroke="#e0e667"></path><path d="M637 369L646 238L546.3 247Z" fill="#e0e667" stroke="#e0e667"></path><path d="M557.3 213L537.3 54L436.7 153Z" fill="#c7df67" stroke="#c7df67"></path><path d="M665 540L678 444L549.3 455Z" fill="#83c56c" stroke="#83c56c"></path><path d="M637 369L721.7 374L646 238Z" fill="#6dbc6e" stroke="#6dbc6e"></path><path d="M347 230L239.3 338L352 358Z" fill="#009473" stroke="#009473"></path><path d="M280 413L315 540L387.7 540Z" fill="#58b270" stroke="#58b270"></path><path d="M197.3 469L315 540L280 413Z" fill="#f9ed69" stroke="#f9ed69"></path><path d="M646 238L624 169L557.3 213Z" fill="#f9ed69" stroke="#f9ed69"></path><path d="M436.7 153L358 143L347 230Z" fill="#6dbc6e" stroke="#6dbc6e"></path><path d="M347 230L206.3 289L239.3 338Z" fill="#6dbc6e" stroke="#6dbc6e"></path><path d="M412.7 94L358 143L436.7 153Z" fill="#c7df67" stroke="#c7df67"></path><path d="M678 444L721.7 374L637 369Z" fill="#e0e667" stroke="#e0e667"></path><path d="M646 238L730.7 129L624 169Z" fill="#b0d668" stroke="#b0d668"></path><path d="M558.3 540L665 540L549.3 455Z" fill="#83c56c" stroke="#83c56c"></path><path d="M678 444L741.7 470L721.7 374Z" fill="#f9ed69" stroke="#f9ed69"></path><path d="M537.3 54L412.7 94L436.7 153Z" fill="#58b270" stroke="#58b270"></path><path d="M175.3 171L206.3 289L347 230Z" fill="#e0e667" stroke="#e0e667"></path><path d="M239.3 338L197.3 469L280 413Z" fill="#299e73" stroke="#299e73"></path><path d="M718.7 540L741.7 470L678 444Z" fill="#42a872" stroke="#42a872"></path><path d="M721.7 374L749.7 251L646 238Z" fill="#99ce6a" stroke="#99ce6a"></path><path d="M815.3 276L749.7 251L721.7 374Z" fill="#c7df67" stroke="#c7df67"></path><path d="M97.7 396L197.3 469L239.3 338Z" fill="#99ce6a" stroke="#99ce6a"></path><path d="M665 540L718.7 540L678 444Z" fill="#299e73" stroke="#299e73"></path><path d="M615 78L537.3 54L624 169Z" fill="#58b270" stroke="#58b270"></path><path d="M624 169L537.3 54L557.3 213Z" fill="#f9ed69" stroke="#f9ed69"></path><path d="M730.7 129L615 78L624 169Z" fill="#009473" stroke="#009473"></path><path d="M412.7 94L352 59L358 143Z" fill="#c7df67" stroke="#c7df67"></path><path d="M358 143L175.3 171L347 230Z" fill="#e0e667" stroke="#e0e667"></path><path d="M448.7 0L352 59L412.7 94Z" fill="#e0e667" stroke="#e0e667"></path><path d="M113.7 481L192.3 540L197.3 469Z" fill="#b0d668" stroke="#b0d668"></path><path d="M197.3 469L192.3 540L315 540Z" fill="#6dbc6e" stroke="#6dbc6e"></path><path d="M870.3 427L816.3 383L741.7 470Z" fill="#299e73" stroke="#299e73"></path><path d="M741.7 470L816.3 383L721.7 374Z" fill="#f9ed69" stroke="#f9ed69"></path><path d="M785.7 156L730.7 129L749.7 251Z" fill="#b0d668" stroke="#b0d668"></path><path d="M749.7 251L730.7 129L646 238Z" fill="#009473" stroke="#009473"></path><path d="M816.3 383L815.3 276L721.7 374Z" fill="#83c56c" stroke="#83c56c"></path><path d="M208.3 60L175.3 171L358 143Z" fill="#83c56c" stroke="#83c56c"></path><path d="M206.3 289L125.7 301L239.3 338Z" fill="#e0e667" stroke="#e0e667"></path><path d="M175.3 171L125.7 301L206.3 289Z" fill="#42a872" stroke="#42a872"></path><path d="M570.3 0L448.7 0L537.3 54Z" fill="#99ce6a" stroke="#99ce6a"></path><path d="M537.3 54L448.7 0L412.7 94Z" fill="#f9ed69" stroke="#f9ed69"></path><path d="M570.3 0L537.3 54L615 78Z" fill="#b0d668" stroke="#b0d668"></path><path d="M815.3 276L785.7 156L749.7 251Z" fill="#b0d668" stroke="#b0d668"></path><path d="M649 0L570.3 0L615 78Z" fill="#6dbc6e" stroke="#6dbc6e"></path><path d="M649 0L615 78L707.7 0Z" fill="#99ce6a" stroke="#99ce6a"></path><path d="M125.7 301L97.7 396L239.3 338Z" fill="#e0e667" stroke="#e0e667"></path><path d="M97.7 396L113.7 481L197.3 469Z" fill="#c7df67" stroke="#c7df67"></path><path d="M448.7 0L338 0L352 59Z" fill="#99ce6a" stroke="#99ce6a"></path><path d="M352 59L208.3 60L358 143Z" fill="#f9ed69" stroke="#f9ed69"></path><path d="M707.7 0L615 78L730.7 129Z" fill="#58b270" stroke="#58b270"></path><path d="M251.3 0L208.3 60L352 59Z" fill="#6dbc6e" stroke="#6dbc6e"></path><path d="M175.3 171L106.7 141L125.7 301Z" fill="#6dbc6e" stroke="#6dbc6e"></path><path d="M816.3 383L960 332L815.3 276Z" fill="#58b270" stroke="#58b270"></path><path d="M815.3 276L852.3 154L785.7 156Z" fill="#6dbc6e" stroke="#6dbc6e"></path><path d="M868.3 540L870.3 427L741.7 470Z" fill="#009473" stroke="#009473"></path><path d="M0 540L113.7 540L113.7 481Z" fill="#99ce6a" stroke="#99ce6a"></path><path d="M113.7 481L113.7 540L192.3 540Z" fill="#f9ed69" stroke="#f9ed69"></path><path d="M338 0L251.3 0L352 59Z" fill="#b0d668" stroke="#b0d668"></path><path d="M97.7 104L106.7 141L175.3 171Z" fill="#f9ed69" stroke="#f9ed69"></path><path d="M125.7 301L0 358L97.7 396Z" fill="#e0e667" stroke="#e0e667"></path><path d="M97.7 104L175.3 171L208.3 60Z" fill="#58b270" stroke="#58b270"></path><path d="M814.3 0L707.7 0L730.7 129Z" fill="#42a872" stroke="#42a872"></path><path d="M960 244L852.3 154L815.3 276Z" fill="#e0e667" stroke="#e0e667"></path><path d="M785.7 156L849.3 54L730.7 129Z" fill="#83c56c" stroke="#83c56c"></path><path d="M718.7 540L868.3 540L741.7 470Z" fill="#009473" stroke="#009473"></path><path d="M112.7 0L97.7 104L208.3 60Z" fill="#c7df67" stroke="#c7df67"></path><path d="M0 243L0 358L125.7 301Z" fill="#42a872" stroke="#42a872"></path><path d="M0 243L125.7 301L106.7 141Z" fill="#99ce6a" stroke="#99ce6a"></path><path d="M97.7 396L0 443L113.7 481Z" fill="#99ce6a" stroke="#99ce6a"></path><path d="M0 358L0 443L97.7 396Z" fill="#f9ed69" stroke="#f9ed69"></path><path d="M960 91L849.3 54L852.3 154Z" fill="#f9ed69" stroke="#f9ed69"></path><path d="M852.3 154L849.3 54L785.7 156Z" fill="#e0e667" stroke="#e0e667"></path><path d="M960 485L960 332L870.3 427Z" fill="#99ce6a" stroke="#99ce6a"></path><path d="M870.3 427L960 332L816.3 383Z" fill="#f9ed69" stroke="#f9ed69"></path><path d="M0 151L0 243L106.7 141Z" fill="#6dbc6e" stroke="#6dbc6e"></path><path d="M849.3 54L814.3 0L730.7 129Z" fill="#c7df67" stroke="#c7df67"></path><path d="M960 332L960 244L815.3 276Z" fill="#99ce6a" stroke="#99ce6a"></path><path d="M868.3 540L960 485L870.3 427Z" fill="#b0d668" stroke="#b0d668"></path><path d="M0 443L0 540L113.7 481Z" fill="#6dbc6e" stroke="#6dbc6e"></path><path d="M251.3 0L112.7 0L208.3 60Z" fill="#99ce6a" stroke="#99ce6a"></path><path d="M97.7 104L0 151L106.7 141Z" fill="#e0e667" stroke="#e0e667"></path><path d="M868.3 540L960 540L960 485Z" fill="#f9ed69" stroke="#f9ed69"></path><path d="M0 71L0 151L97.7 104Z" fill="#b0d668" stroke="#b0d668"></path><path d="M960 244L960 168L852.3 154Z" fill="#83c56c" stroke="#83c56c"></path><path d="M849.3 54L960 0L814.3 0Z" fill="#b0d668" stroke="#b0d668"></path><path d="M960 168L960 91L852.3 154Z" fill="#009473" stroke="#009473"></path><path d="M112.7 0L0 71L97.7 104Z" fill="#6dbc6e" stroke="#6dbc6e"></path><path d="M112.7 0L0 0L0 71Z" fill="#c7df67" stroke="#c7df67"></path><path d="M960 91L960 0L849.3 54Z" fill="#6dbc6e" stroke="#6dbc6e"></path></g></svg>