<svg id="visual" viewBox="0 0 960 540" width="960" height="540" xmlns="http://www.w3.org/2000/svg" xmlns:xlink="http://www.w3.org/1999/xlink" version="1.1"><rect x="0" y="0" width="960" height="540" fill="#e0571d"></rect><path d="M388 0L347 77L302 154L288 231L388 309L375 386L293 463L256 540L0 540L0 463L0 386L0 309L0 231L0 154L0 77L0 0Z" fill="#f7770f"></path><path d="M219 0L229 77L200 154L252 231L283 309L261 386L211 463L266 540L0 540L0 463L0 386L0 309L0 231L0 154L0 77L0 0Z" fill="#dc5e0c"></path><path d="M201 0L218 77L248 154L248 231L158 309L177 386L182 463L209 540L0 540L0 463L0 386L0 309L0 231L0 154L0 77L0 0Z" fill="#c04608"></path><path d="M163 0L167 77L126 154L110 231L154 309L181 386L185 463L146 540L0 540L0 463L0 386L0 309L0 231L0 154L0 77L0 0Z" fill="#a42e05"></path><path d="M107 0L66 77L111 154L98 231L114 309L85 386L58 463L56 540L0 540L0 463L0 386L0 309L0 231L0 154L0 77L0 0Z" fill="#871400"></path></svg>