<svg id="visual" viewBox="0 0 960 540" width="960" height="540" xmlns="http://www.w3.org/2000/svg" xmlns:xlink="http://www.w3.org/1999/xlink" version="1.1">
<path d="M0 294L137 294L137 258L274 258L274 345L411 345L411 230L549 230L549 313L686 313L686 246L823 246L823 241L960 241L960 311L960 541L960 541L823 541L823 541L686 541L686 541L549 541L549 541L411 541L411 541L274 541L274 541L137 541L137 541L0 541Z" fill="#9900ff"></path>
<path d="M0 403L137 403L137 315L274 315L274 338L411 338L411 361L549 361L549 412L686 412L686 378L823 378L823 354L960 354L960 329L960 541L960 541L823 541L823 541L686 541L686 541L549 541L549 541L411 541L411 541L274 541L274 541L137 541L137 541L0 541Z" fill="#7700c6"></path>
<path d="M0 428L137 428L137 462L274 462L274 426L411 426L411 406L549 406L549 442L686 442L686 449L823 449L823 431L960 431L960 489L960 541L960 541L823 541L823 541L686 541L686 541L549 541L549 541L411 541L411 541L274 541L274 541L137 541L137 541L0 541Z" fill="#560090"></path>
</svg>