<svg id="visual" viewBox="0 0 960 540" width="960" height="540" xmlns="http://www.w3.org/2000/svg" xmlns:xlink="http://www.w3.org/1999/xlink" version="1.1"><rect x="0" y="0" width="960" height="540" fill="#140021"></rect><path d="M0 321L137 321L137 337L274 337L274 250L411 250L411 235L549 235L549 342L686 342L686 267L823 267L823 320L960 320L960 337L960 541L960 541L823 541L823 541L686 541L686 541L549 541L549 541L411 541L411 541L274 541L274 541L137 541L137 541L0 541Z" fill="#9900ff"></path><path d="M0 329L137 329L137 397L274 397L274 373L411 373L411 399L549 399L549 316L686 316L686 378L823 378L823 339L960 339L960 339L960 541L960 541L823 541L823 541L686 541L686 541L549 541L549 541L411 541L411 541L274 541L274 541L137 541L137 541L0 541Z" fill="#7700c6"></path><path d="M0 422L137 422L137 480L274 480L274 424L411 424L411 412L549 412L549 454L686 454L686 480L823 480L823 407L960 407L960 475L960 541L960 541L823 541L823 541L686 541L686 541L549 541L549 541L411 541L411 541L274 541L274 541L137 541L137 541L0 541Z" fill="#560090"></path></svg>