<svg id="visual" viewBox="0 0 960 540" width="960" height="540" xmlns="http://www.w3.org/2000/svg" xmlns:xlink="http://www.w3.org/1999/xlink" version="1.1"><rect x="0" y="0" width="960" height="540" fill="#b83b5e"></rect><path d="M0 327L16 317.8C32 308.7 64 290.3 96 290.5C128 290.7 160 309.3 192 309.3C224 309.3 256 290.7 288 288C320 285.3 352 298.7 384 305.2C416 311.7 448 311.3 480 304.3C512 297.3 544 283.7 576 280.7C608 277.7 640 285.3 672 293.8C704 302.3 736 311.7 768 310C800 308.3 832 295.7 864 291.8C896 288 928 293 944 295.5L960 298L960 541L944 541C928 541 896 541 864 541C832 541 800 541 768 541C736 541 704 541 672 541C640 541 608 541 576 541C544 541 512 541 480 541C448 541 416 541 384 541C352 541 320 541 288 541C256 541 224 541 192 541C160 541 128 541 96 541C64 541 32 541 16 541L0 541Z" fill="#b83b5e"></path><path d="M0 354L16 354.5C32 355 64 356 96 350.2C128 344.3 160 331.7 192 326C224 320.3 256 321.7 288 320.5C320 319.3 352 315.7 384 321.3C416 327 448 342 480 349C512 356 544 355 576 356.2C608 357.3 640 360.7 672 357.2C704 353.7 736 343.3 768 342.7C800 342 832 351 864 353C896 355 928 350 944 347.5L960 345L960 541L944 541C928 541 896 541 864 541C832 541 800 541 768 541C736 541 704 541 672 541C640 541 608 541 576 541C544 541 512 541 480 541C448 541 416 541 384 541C352 541 320 541 288 541C256 541 224 541 192 541C160 541 128 541 96 541C64 541 32 541 16 541L0 541Z" fill="#8f386d"></path><path d="M0 392L16 385.7C32 379.3 64 366.7 96 363.8C128 361 160 368 192 371.8C224 375.7 256 376.3 288 379.2C320 382 352 387 384 383.5C416 380 448 368 480 365.3C512 362.7 544 369.3 576 371C608 372.7 640 369.3 672 368.8C704 368.3 736 370.7 768 370.3C800 370 832 367 864 368.8C896 370.7 928 377.3 944 380.7L960 384L960 541L944 541C928 541 896 541 864 541C832 541 800 541 768 541C736 541 704 541 672 541C640 541 608 541 576 541C544 541 512 541 480 541C448 541 416 541 384 541C352 541 320 541 288 541C256 541 224 541 192 541C160 541 128 541 96 541C64 541 32 541 16 541L0 541Z" fill="#5f386d"></path><path d="M0 438L16 437C32 436 64 434 96 430.5C128 427 160 422 192 418C224 414 256 411 288 413.8C320 416.7 352 425.3 384 428.7C416 432 448 430 480 422.8C512 415.7 544 403.3 576 399.3C608 395.3 640 399.7 672 405.3C704 411 736 418 768 420.3C800 422.7 832 420.3 864 414.7C896 409 928 400 944 395.5L960 391L960 541L944 541C928 541 896 541 864 541C832 541 800 541 768 541C736 541 704 541 672 541C640 541 608 541 576 541C544 541 512 541 480 541C448 541 416 541 384 541C352 541 320 541 288 541C256 541 224 541 192 541C160 541 128 541 96 541C64 541 32 541 16 541L0 541Z" fill="#31345d"></path><path d="M0 457L16 453C32 449 64 441 96 440.8C128 440.7 160 448.3 192 449.8C224 451.3 256 446.7 288 445.2C320 443.7 352 445.3 384 448.3C416 451.3 448 455.7 480 456.2C512 456.7 544 453.3 576 454.8C608 456.3 640 462.7 672 461.2C704 459.7 736 450.3 768 447C800 443.7 832 446.3 864 450C896 453.7 928 458.3 944 460.7L960 463L960 541L944 541C928 541 896 541 864 541C832 541 800 541 768 541C736 541 704 541 672 541C640 541 608 541 576 541C544 541 512 541 480 541C448 541 416 541 384 541C352 541 320 541 288 541C256 541 224 541 192 541C160 541 128 541 96 541C64 541 32 541 16 541L0 541Z" fill="#0e2a43"></path><path d="M0 500L16 497C32 494 64 488 96 484C128 480 160 478 192 477.7C224 477.3 256 478.7 288 484.3C320 490 352 500 384 503.3C416 506.7 448 503.3 480 498.3C512 493.3 544 486.7 576 486.5C608 486.3 640 492.7 672 497.5C704 502.3 736 505.7 768 506.7C800 507.7 832 506.3 864 505.5C896 504.7 928 504.3 944 504.2L960 504L960 541L944 541C928 541 896 541 864 541C832 541 800 541 768 541C736 541 704 541 672 541C640 541 608 541 576 541C544 541 512 541 480 541C448 541 416 541 384 541C352 541 320 541 288 541C256 541 224 541 192 541C160 541 128 541 96 541C64 541 32 541 16 541L0 541Z" fill="#061c26"></path></svg>