<svg id="visual" viewBox="0 0 960 540" width="960" height="540" xmlns="http://www.w3.org/2000/svg" xmlns:xlink="http://www.w3.org/1999/xlink" version="1.1"><path d="M0 163L87 158L175 179L262 195L349 104L436 104L524 131L611 104L698 152L785 104L873 120L960 98L960 0L873 0L785 0L698 0L611 0L524 0L436 0L349 0L262 0L175 0L87 0L0 0Z" fill="#e0571d"></path><path d="M0 255L87 190L175 271L262 282L349 174L436 174L524 168L611 152L698 222L785 195L873 174L960 174L960 96L873 118L785 102L698 150L611 102L524 129L436 102L349 102L262 193L175 177L87 156L0 161Z" fill="#eb801f"></path><path d="M0 347L87 303L175 325L262 336L349 260L436 276L524 206L611 266L698 314L785 276L873 249L960 233L960 172L873 172L785 193L698 220L611 150L524 166L436 172L349 172L262 280L175 269L87 188L0 253Z" fill="#f2a52e"></path><path d="M0 444L87 449L175 455L262 422L349 428L436 417L524 406L611 422L698 406L785 471L873 449L960 438L960 231L873 247L785 274L698 312L611 264L524 204L436 274L349 258L262 334L175 323L87 301L0 345Z" fill="#f7c947"></path><path d="M0 541L87 541L175 541L262 541L349 541L436 541L524 541L611 541L698 541L785 541L873 541L960 541L960 436L873 447L785 469L698 404L611 420L524 404L436 415L349 426L262 420L175 453L87 447L0 442Z" fill="#f9ed69"></path></svg>